#!OML:ASF X:\für Bonn\!DataBase\2005_08_10_Bjorn_Final\c3d\bjorn.ASF
:FULLY-SPECIFIED
:DEGREES
309
root 23.0584 17.9954 -0.791128 24.0547 -68.4613 -344.72
lowerback 52.8011 2.46629 4.55845
upperback 19.1448 2.38281 -0.621803
thorax 0.730508 0.879541 -3.59723
lowerneck -8.78109 -4.11479 7.35074
upperneck -9.99277 -6.15768 3.20127
head -1.80965 -3.54397 -0.256069
rclavicle 9.54166e-015 -4.77083e-015
rhumerus 58.922 16.713 -33.3011
rradius 22.1638
rwrist -1.42631
rhand -21.7835 12.1013
rfingers 7.12502
rthumb 4.61784 -17.8283
lclavicle 9.54166e-015 -4.77083e-015
lhumerus 58.7596 -22.6532 69.527
lradius 14.8581
lwrist -30.5914
lhand -25.1344 -3.88502
lfingers 7.12502
lthumb 1.38174 26.0903
rfemur -73.4582 -11.0115 13.7515
rtibia 57.2701
rfoot -17.4992 3.29299
rtoes -10.6312
lfemur -72.9021 7.39215 -27.6816
ltibia 53.5688
lfoot -11.0852 -3.7925
ltoes -12.2075
310
root 23.0429 18.0481 -0.799536 23.5927 -68.6038 -344.75
lowerback 52.4161 2.53794 4.42736
upperback 19.2148 2.39175 -0.538162
thorax 0.834981 0.862813 -3.45219
lowerneck -8.6925 -4.08228 7.37888
upperneck -10.1031 -6.10545 3.2015
head -1.86039 -3.52475 -0.256066
rclavicle -1.11319e-014 -2.38542e-015
rhumerus 57.6331 16.8148 -34.4105
rradius 22.2617
rwrist -1.23189
rhand -21.466 12.2512
rfingers 7.12502
rthumb 4.92443 -17.6716
lclavicle -1.11319e-014 -2.38542e-015
lhumerus 58.4151 -23.1838 68.3167
lradius 15.5203
lwrist -29.1128
lhand -24.9297 -3.88349
lfingers 7.12502
lthumb 1.5795 26.0904
rfemur -72.4746 -10.7406 13.6094
rtibia 56.6133
rfoot -17.3917 3.23106
rtoes -10.3832
lfemur -71.8911 7.5214 -27.507
ltibia 52.8775
lfoot -10.9603 -3.69701
ltoes -12.0958
311
root 23.0282 18.1005 -0.80858 23.1742 -68.7051 -344.848
lowerback 52.0273 2.56409 4.37305
upperback 19.2852 2.38451 -0.46642
thorax 0.945464 0.845267 -3.34911
lowerneck -8.60068 -4.0506 7.39435
upperneck -10.2278 -6.0466 3.29284
head -1.91267 -3.50386 -0.225003
rclavicle -7.31528e-014 -2.22639e-014
rhumerus 56.3016 16.8426 -35.655
rradius 22.3521
rwrist -0.975484
rhand -21.1713 12.4902
rfingers 7.12502
rthumb 5.20891 -17.4257
lclavicle -7.31528e-014 -2.22639e-014
lhumerus 58.1001 -23.7366 67.0887
lradius 16.183
lwrist -27.661
lhand -24.7922 -3.91384
lfingers 7.12502
lthumb 1.71223 26.059
rfemur -71.4642 -10.4886 13.5214
rtibia 55.9516
rfoot -17.2959 3.10724
rtoes -10.3412
lfemur -70.8603 7.65096 -27.315
ltibia 52.1776
lfoot -10.8133 -3.59204
ltoes -12.2759
312
root 23.0117 18.1537 -0.817181 22.6799 -68.8084 -344.89
lowerback 51.6346 2.58981 4.2774
upperback 19.3514 2.36097 -0.383517
thorax 1.04953 0.815584 -3.20957
lowerneck -8.44756 -4.0256 7.42693
upperneck -10.376 -5.99379 3.34034
head -1.98547 -3.48747 -0.208599
rclavicle -1.59028e-015 3.57812e-014
rhumerus 55.0511 16.9952 -36.6108
rradius 22.5234
rwrist -1.07311
rhand -20.9675 12.8565
rfingers 7.12502
rthumb 5.40576 -17.0546
lclavicle -1.59028e-015 3.57812e-014
lhumerus 57.7254 -24.2129 66.0045
lradius 16.8624
lwrist -26.2767
lhand -24.6127 -3.93067
lfingers 7.12502
lthumb 1.88561 26.0407
rfemur -70.4114 -10.2417 13.4011
rtibia 55.2821
rfoot -17.2025 3.03815
rtoes -10.1391
lfemur -69.7929 7.79708 -27.1561
ltibia 51.4672
lfoot -10.6612 -3.55493
ltoes -12.2096
